<svg id="Слой_1" data-name="Слой 1" xmlns="http://www.w3.org/2000/svg" viewBox="0 0 600 600"><defs><style>.cls-1{fill:#f2b337;}.cls-2{fill:#512778;}.cls-3{fill:#e52a0a;}</style></defs><path class="cls-1" d="M316.9,578a13.09,13.09,0,0,1,11.83-13c132.69-12.94,236.41-125.27,236.41-261.93A263.27,263.27,0,0,0,425.31,70.24a13,13,0,0,0-19,11.62V231.32a13.06,13.06,0,0,1-13,13.08h-5.6a13.06,13.06,0,0,1-13-13.08V59.94a13.08,13.08,0,0,0-10-12.74h0a13,13,0,0,0-16.05,12.7V290a13.06,13.06,0,0,1-13,13.09h-5.61a13.06,13.06,0,0,1-13-13.09V19.25a13.07,13.07,0,0,1,14.27-13C482,20.43,600,147.91,600,303.08S482,585.73,331.17,599.94a13.07,13.07,0,0,1-14.27-13Z"/><path class="cls-2" d="M308.85,572a13.08,13.08,0,0,1,11.81-13C453.34,545.9,556.94,433.47,556.8,296.81A263.27,263.27,0,0,0,416.74,64.11a13,13,0,0,0-19,11.64l.15,149.46a13.06,13.06,0,0,1-13,13.1h-5.61a13.06,13.06,0,0,1-13-13.08L366,53.86a13.07,13.07,0,0,0-10-12.72h0a13,13,0,0,0-16,12.71l.24,230.09a13.07,13.07,0,0,1-13,13.11H321.6a13,13,0,0,1-13-13.07L308.3,34.25l0-21a13.06,13.06,0,0,1,14.25-13c150.83,14.06,269,141.41,269.14,296.59S473.93,579.54,323.14,593.91a13.06,13.06,0,0,1-14.28-13Z"/><path class="cls-1" d="M291.44,575.84a11,11,0,0,0-10.17-11.12C147.83,556.26,42.16,442.52,42.16,303.44S147.83,50.63,281.27,42.17a11,11,0,0,0,10.17-11.12V17.68a11,11,0,0,0-11.5-11.13C128.36,16.22,8.34,145.44,8.34,303.44s120,287.23,271.6,296.9a11,11,0,0,0,11.5-11.13Z"/><rect class="cls-1" x="256.44" y="18.52" width="35" height="132"/><rect class="cls-1" x="256.44" y="456.52" width="35" height="132"/><path class="cls-1" d="M139.44,282.41v42.1c83.95,0,152-76.89,152-171.74,0-.75,0-1.5,0-2.25H256.16C255.9,223.23,203.79,282.11,139.44,282.41Z"/><path class="cls-1" d="M139.44,324.64v-42.1c83.95,0,152,76.89,152,171.74,0,.75,0,1.5,0,2.24H256.16C255.9,383.82,203.79,324.94,139.44,324.64Z"/><rect class="cls-1" x="30.44" y="282.52" width="109" height="42"/><path class="cls-3" d="M283,569.31a11,11,0,0,0-10.17-11.11C139.39,549.74,33.72,436,33.72,296.92S139.39,44.1,272.83,35.64A11,11,0,0,0,283,24.53V11.16A11,11,0,0,0,271.5,0C119.92,9.69-.1,138.92-.1,296.92s120,287.23,271.6,296.9A11,11,0,0,0,283,582.68Z"/><rect class="cls-3" x="248" y="12" width="35" height="132"/><rect class="cls-3" x="248" y="450" width="35" height="132"/><path class="cls-3" d="M131,275.89V318C215,318,283,241.1,283,146.24c0-.75,0-1.49,0-2.24H247.73C247.46,216.71,195.35,275.58,131,275.89Z"/><path class="cls-3" d="M131,318.11V276C215,276,283,352.9,283,447.76c0,.75,0,1.49,0,2.24H247.73C247.46,377.29,195.35,318.42,131,318.11Z"/><rect class="cls-3" x="22" y="276" width="109" height="42"/></svg>